<?xml version="1.0" standalone="no"?>
<!DOCTYPE svg PUBLIC "-//W3C//DTD SVG 20010904//EN"
 "http://www.w3.org/TR/2001/REC-SVG-20010904/DTD/svg10.dtd">
<svg version="1.0" xmlns="http://www.w3.org/2000/svg"
 width="565.000000pt" height="442.000000pt" viewBox="0 0 565.000000 442.000000"
 preserveAspectRatio="xMidYMid meet">

<g transform="translate(0.000000,442.000000) scale(0.100000,-0.100000)"
fill="#000000" stroke="none">
<path d="M2435 3620 c-3 -6 -16 -8 -28 -5 -12 3 -40 -1 -62 -11 -22 -9 -49
-18 -60 -20 -41 -8 -125 -41 -118 -47 3 -4 -4 -6 -18 -6 -41 3 -152 -49 -289
-136 -194 -122 -385 -318 -513 -525 -69 -113 -99 -193 -58 -156 18 17 19 17
23 -1 2 -12 21 11 58 72 89 149 156 234 289 365 131 128 277 236 426 314 39
20 77 40 85 45 22 14 262 91 283 91 9 0 17 5 17 11 0 5 5 7 12 3 7 -4 8 -3 4
4 -9 15 -43 16 -51 2z"/>
<path d="M3086 3035 c-12 -13 -43 -60 -67 -104 l-44 -80 -65 -2 c-36 -1 -78
-5 -95 -9 -51 -12 -3 -23 76 -18 38 3 69 2 69 -2 0 -3 -11 -39 -25 -79 -38
-114 -187 -301 -239 -301 -23 0 -25 10 -13 78 8 49 13 62 28 62 25 0 117 90
125 122 8 34 -25 68 -65 68 -41 0 -82 -38 -121 -112 -62 -117 -179 -262 -197
-244 -4 3 11 49 31 101 21 53 35 102 32 110 -3 8 -23 18 -46 21 -38 6 -53 25
-30 39 6 3 10 13 10 21 0 26 -52 13 -69 -17 -13 -24 -13 -29 2 -53 11 -16 27
-26 42 -26 14 0 25 -1 25 -2 0 -2 -14 -36 -30 -77 -17 -40 -30 -85 -30 -100 0
-31 25 -71 44 -71 28 0 99 64 148 135 28 41 53 73 55 71 2 -2 -3 -23 -11 -46
-17 -49 -9 -80 26 -104 49 -34 82 -16 163 89 31 41 58 75 60 75 1 0 -6 -35
-16 -77 -32 -136 -20 -193 39 -193 24 0 84 66 168 185 32 45 54 69 50 55 -3
-14 -13 -60 -22 -104 -16 -76 -16 -79 3 -105 39 -52 63 -42 142 59 40 50 81
107 93 126 11 19 21 34 23 34 1 0 2 -25 1 -56 -1 -44 3 -59 17 -68 26 -17 118
35 173 98 24 28 44 46 44 39 0 -6 -9 -40 -20 -76 -16 -52 -29 -73 -68 -108
-59 -55 -159 -173 -167 -199 -3 -11 -17 -20 -33 -22 -33 -4 -95 -82 -87 -108
3 -10 1 -21 -4 -25 -7 -4 -9 1 -5 12 5 16 3 15 -11 -2 -29 -34 -56 -95 -109
-240 -45 -122 -61 -152 -125 -237 -67 -90 -96 -117 -109 -103 -3 3 12 50 35
105 45 110 44 116 -21 127 -34 5 -47 25 -26 38 15 9 12 32 -6 39 -23 9 -66
-38 -59 -66 8 -31 -85 -138 -120 -138 -22 0 -23 3 -15 31 5 17 19 51 30 75 23
47 21 59 -9 67 -28 7 -43 -7 -58 -55 -21 -70 -17 -106 16 -139 16 -16 36 -29
43 -29 17 0 52 37 97 100 29 42 34 46 67 42 27 -3 32 -7 24 -17 -18 -22 -60
-137 -60 -166 0 -15 9 -37 19 -50 l19 -24 37 19 c36 20 85 73 140 151 15 22
25 32 21 22 -3 -10 -9 -49 -12 -86 -10 -107 16 -161 78 -161 51 0 255 275 246
332 -3 21 -5 20 -22 -12 -35 -64 -144 -225 -169 -248 -61 -57 -83 9 -51 152
16 70 29 95 119 230 55 83 111 179 124 213 22 60 24 61 49 52 57 -22 119 67
183 262 l42 126 81 67 c45 36 89 72 100 79 10 8 17 19 15 26 -3 8 -40 -14 -98
-60 -52 -39 -92 -68 -89 -63 70 134 74 145 54 160 -28 20 -45 17 -55 -8 -5
-13 -43 -57 -84 -100 -71 -71 -110 -98 -124 -84 -9 9 25 124 53 181 24 47 25
50 7 63 -22 16 -34 3 -148 -153 -84 -116 -152 -195 -167 -195 -26 0 32 203
107 380 l32 75 62 5 c34 3 60 9 59 15 -2 6 -26 8 -56 6 l-53 -3 30 58 c16 33
41 75 56 94 24 32 24 36 8 47 -43 32 -75 2 -154 -142 l-28 -49 -75 -2 c-42 -1
-76 1 -76 3 0 10 51 102 74 132 30 40 32 56 10 65 -28 11 -45 6 -68 -19z m124
-209 c0 -2 -15 -44 -33 -93 -25 -67 -51 -112 -103 -179 -187 -241 -204 -244
-132 -17 16 51 46 134 67 185 l39 93 63 6 c35 3 72 6 82 7 9 1 17 0 17 -2z
m-410 -113 c0 -25 -74 -112 -86 -100 -3 3 4 27 16 53 36 82 70 105 70 47z
m401 -90 c-12 -20 -14 -14 -5 12 4 9 9 14 11 11 3 -2 0 -13 -6 -23z m-252 -22
c-6 -18 -13 -30 -15 -28 -2 2 1 18 7 36 6 18 13 30 15 28 2 -2 -1 -18 -7 -36z
m556 -295 c-33 -87 -79 -179 -99 -195 -43 -36 -50 55 -8 117 35 52 123 154
128 149 2 -2 -7 -34 -21 -71z m-185 -207 c0 -32 -44 -132 -104 -233 -31 -53
-59 -96 -61 -96 -5 0 61 187 89 255 22 52 58 105 68 99 4 -3 8 -14 8 -25z"/>
<path d="M2156 3011 c-65 -103 -204 -456 -192 -488 3 -7 1 -13 -4 -13 -5 0
-12 -25 -16 -56 -5 -43 -3 -59 9 -71 27 -27 48 -1 81 103 l32 99 40 5 c88 11
246 135 295 232 31 60 43 134 29 169 -12 29 -37 49 -60 49 -30 0 -187 -179
-246 -283 -13 -23 -24 -36 -24 -30 0 16 54 152 85 213 28 56 31 82 11 100 -12
9 -19 4 -40 -29z m204 -70 c0 -45 -67 -167 -124 -225 -45 -47 -131 -104 -141
-94 -6 6 56 121 93 173 58 81 143 175 158 175 9 0 14 -11 14 -29z"/>
<path d="M2413 2061 c-46 -33 -121 -122 -160 -189 -38 -65 -73 -167 -73 -213
0 -72 45 -129 103 -129 32 0 112 76 154 148 14 23 26 42 28 42 2 0 -14 -48
-35 -107 -98 -277 -159 -393 -206 -393 -21 0 -24 5 -24 34 0 37 45 130 85 178
44 52 27 51 -35 -2 -67 -58 -116 -143 -105 -182 17 -56 86 -96 129 -77 30 14
73 73 118 164 39 78 208 495 208 513 0 11 -38 42 -51 42 -4 0 -31 -33 -62 -73
-109 -146 -209 -239 -237 -222 -18 11 -10 46 29 135 62 140 181 300 223 300
18 0 20 -4 15 -37 -4 -20 -20 -58 -36 -85 -41 -65 -15 -65 50 1 51 50 59 75
39 125 -10 28 -57 56 -93 56 -13 0 -42 -13 -64 -29z m-73 -105 c0 -2 -8 -10
-17 -17 -16 -13 -17 -12 -4 4 13 16 21 21 21 13z m-97 -151 c-9 -19 -18 -33
-21 -31 -4 5 26 66 33 66 3 0 -3 -16 -12 -35z"/>
<path d="M2689 1923 c-1 -4 0 -16 1 -26 1 -10 -8 -34 -19 -53 -48 -81 -11 -87
43 -7 29 43 36 61 29 72 -11 17 -52 28 -54 14z"/>
<path d="M3379 1792 l-33 -29 12 -74 c7 -41 15 -85 18 -100 5 -21 -2 -31 -47
-65 -29 -21 -61 -51 -72 -66 -49 -66 50 -136 136 -97 38 17 61 67 62 132 l1
57 60 40 c67 43 101 76 90 87 -4 4 -15 2 -24 -5 -20 -14 -129 -72 -136 -72 -2
0 -10 32 -16 71 -9 54 -9 77 -1 97 10 20 9 28 -2 40 -13 12 -19 10 -48 -16z
m6 -311 c-11 -50 -42 -81 -81 -81 -38 0 -41 6 -18 38 18 26 95 85 102 78 2 -3
1 -18 -3 -35z m20 -91 c-10 -11 -22 -20 -28 -20 -5 0 1 9 14 20 31 25 37 25
14 0z"/>
<path d="M2120 1016 c0 -132 -6 -150 -48 -139 -13 3 -22 1 -22 -6 0 -22 56
-11 81 15 22 23 24 35 28 140 3 110 2 114 -18 114 -20 0 -21 -5 -21 -124z"/>
<path d="M3580 1126 c0 -9 7 -16 16 -16 17 0 14 22 -4 28 -7 2 -12 -3 -12 -12z"/>
<path d="M3674 1094 c3 -26 6 -63 7 -83 1 -33 2 -34 9 -11 4 14 8 51 9 83 1
46 -2 57 -15 57 -14 0 -16 -8 -10 -46z"/>
<path d="M2503 1088 c-5 -7 -7 -44 -4 -83 6 -69 6 -70 36 -72 21 -1 23 0 7 4
-21 4 -23 9 -21 79 2 78 -2 93 -18 72z"/>
<path d="M3484 1092 c-6 -4 -9 -37 -6 -84 l4 -78 32 1 c22 1 25 3 9 6 -20 4
-22 11 -25 83 -2 53 -6 77 -14 72z"/>
<path d="M1997 1073 c-12 -11 -8 -23 8 -23 8 0 15 7 15 15 0 16 -12 20 -23 8z"/>
<path d="M2308 1074 c-5 -4 -8 -31 -8 -59 0 -55 -17 -82 -45 -71 -11 4 -15 21
-15 66 0 47 -3 60 -15 60 -12 0 -15 -13 -15 -58 0 -32 5 -63 12 -70 15 -15 55
-16 63 -2 5 8 11 7 21 -1 8 -6 16 -10 17 -8 7 9 -9 150 -15 143z"/>
<path d="M2372 1068 c-22 -22 -13 -48 23 -70 45 -26 43 -51 -5 -59 l-35 -6 36
-2 c66 -2 80 45 24 81 -44 29 -42 54 4 50 22 -2 31 0 26 7 -8 15 -58 14 -73
-1z"/>
<path d="M2609 1061 c-31 -25 -33 -96 -4 -117 70 -51 159 40 105 109 -26 32
-67 36 -101 8z m77 -17 c24 -37 9 -98 -25 -102 -46 -7 -68 59 -35 106 20 29
40 28 60 -4z"/>
<path d="M2833 1060 c4 -14 7 -65 7 -113 0 -67 3 -88 13 -84 7 2 11 16 9 35
-3 31 -2 32 37 32 35 0 43 4 56 30 18 35 19 51 3 84 -14 32 -43 42 -74 26 -19
-11 -26 -10 -40 1 -16 13 -17 12 -11 -11z m101 -32 c14 -41 -3 -82 -35 -86
-24 -3 -27 1 -33 38 -4 23 -2 49 5 61 15 29 51 21 63 -13z"/>
<path d="M3011 1071 c-11 -7 -5 -10 20 -13 33 -3 34 -4 36 -50 3 -51 -18 -81
-40 -59 -9 9 -9 16 1 31 14 23 4 26 -22 7 -10 -7 -16 -22 -14 -33 3 -16 12
-19 58 -19 l55 0 -5 63 c-6 65 -17 82 -55 82 -11 0 -26 -4 -34 -9z"/>
<path d="M3185 1070 c-4 -6 -15 -8 -26 -5 -17 6 -19 1 -19 -64 0 -56 3 -71 15
-71 12 0 15 13 15 55 0 49 3 57 25 67 14 6 25 15 25 20 0 12 -28 10 -35 -2z"/>
<path d="M3250 1070 c-11 -7 -6 -10 22 -10 29 0 38 -5 44 -22 4 -14 2 -24 -5
-26 -8 -3 -9 -8 -1 -17 13 -15 4 -41 -17 -49 -33 -13 -47 25 -15 43 15 9 15
10 0 11 -23 0 -50 -29 -44 -47 3 -8 6 -17 6 -19 0 -8 42 -4 60 6 13 7 21 7 25
0 3 -5 10 -10 14 -10 11 0 1 123 -11 138 -12 14 -57 16 -78 2z"/>
<path d="M3580 1000 c0 -72 13 -93 24 -39 11 58 7 109 -9 109 -12 0 -15 -14
-15 -70z"/>
<path d="M1998 944 c-3 -72 1 -92 16 -77 10 10 7 153 -3 153 -5 0 -11 -34 -13
-76z"/>
<path d="M3670 945 c0 -8 7 -15 15 -15 8 0 15 7 15 15 0 8 -7 15 -15 15 -8 0
-15 -7 -15 -15z"/>
<path d="M2168 407 c13 -16 58 -32 80 -28 6 1 12 -2 12 -7 0 -6 7 -12 15 -16
8 -3 15 -2 15 3 0 9 -65 42 -110 56 -22 7 -23 6 -12 -8z"/>
<path d="M2255 335 c28 -14 57 -25 65 -24 20 0 -51 35 -87 42 -18 4 -11 -2 22
-18z"/>
</g>
</svg>
